<?xml version="1.0" standalone="no"?>
<!DOCTYPE svg PUBLIC "-//W3C//DTD SVG 20010904//EN"
 "http://www.w3.org/TR/2001/REC-SVG-20010904/DTD/svg10.dtd">
<svg version="1.0" xmlns="http://www.w3.org/2000/svg"
 width="864.000000pt" height="1104.000000pt" viewBox="0 0 864.000000 1104.000000"
 preserveAspectRatio="xMidYMid meet">

<g transform="translate(0.000000,1104.000000) scale(0.100000,-0.100000)"
fill="#000000" stroke="none">
<path d="M4207 9935 c-1 -1 -42 -5 -92 -9 -87 -6 -205 -21 -249 -31 -11 -3
-52 -10 -91 -15 -159 -21 -247 -41 -540 -120 -77 -20 -303 -102 -395 -142 -82
-36 -324 -159 -367 -186 -23 -15 -69 -43 -102 -64 -142 -87 -383 -286 -396
-327 -5 -17 0 -51 36 -251 6 -30 14 -83 19 -118 6 -34 15 -83 21 -110 6 -26
17 -78 25 -117 8 -38 21 -99 30 -135 9 -36 19 -85 23 -110 16 -90 34 -175 42
-195 4 -11 10 -38 14 -60 3 -22 13 -62 20 -90 16 -53 61 -247 90 -380 10 -44
26 -114 36 -155 10 -41 44 -181 75 -310 30 -129 65 -266 76 -305 12 -38 27
-99 34 -135 7 -36 20 -86 28 -112 l15 -48 -27 0 c-16 0 -68 9 -118 21 -430 99
-611 59 -767 -170 -73 -108 -117 -230 -147 -407 -27 -163 -27 -370 1 -553 11
-75 24 -152 29 -171 5 -19 16 -63 25 -98 34 -141 154 -383 246 -497 69 -85
202 -214 247 -240 17 -11 32 -22 32 -25 4 -72 3 -720 -1 -720 -3 0 -16 11 -29
25 -13 14 -28 25 -33 25 -6 0 -18 6 -26 14 -32 29 -158 85 -219 97 -123 26
-312 -26 -469 -127 -84 -54 -84 -54 -171 -121 -164 -127 -355 -346 -338 -388
9 -25 74 -28 202 -10 69 10 127 15 130 13 2 -3 -24 -32 -59 -65 -90 -83 -172
-197 -203 -279 -24 -65 -26 -81 -27 -254 l-1 -185 41 -145 c23 -80 53 -176 67
-215 15 -38 34 -90 42 -115 25 -71 122 -270 160 -327 35 -53 63 -71 87 -56 53
30 344 378 416 496 29 48 41 36 41 -44 0 -37 12 -91 34 -159 50 -148 96 -207
143 -182 26 14 155 153 231 249 65 82 79 92 97 74 15 -14 159 -61 188 -61 14
0 29 -5 32 -11 8 -13 -12 -28 -85 -65 -103 -52 -107 -63 -61 -160 42 -88 201
-238 282 -264 42 -14 61 -10 239 52 47 16 120 39 162 50 l78 20 37 -33 c44
-38 182 -104 251 -120 60 -14 1171 -13 1512 1 477 20 764 51 843 91 52 27 112
83 127 119 7 17 20 30 29 30 23 0 171 -29 182 -36 14 -8 118 -34 140 -34 11 0
34 7 52 16 34 18 141 106 168 139 9 11 27 31 39 45 24 26 80 137 80 157 0 20
-48 70 -80 83 -28 11 -42 40 -20 40 5 0 34 20 65 45 l56 46 37 -30 c40 -32
392 -389 431 -436 l23 -29 25 29 c64 80 126 256 143 410 7 61 16 114 21 119 4
5 36 -15 71 -46 35 -29 74 -62 88 -71 56 -39 189 -126 255 -167 39 -24 87 -54
108 -67 21 -13 46 -23 55 -21 19 4 104 196 134 302 81 290 90 342 90 510 0 89
-5 176 -11 195 -18 56 -61 110 -160 198 -99 89 -198 152 -296 191 -127 49
-165 67 -169 80 -4 8 22 25 70 47 41 19 78 35 81 35 2 0 36 21 74 48 79 54 90
77 61 124 -37 59 -197 185 -297 234 -27 13 -57 28 -65 34 -27 17 -209 70 -243
70 -48 0 -162 -35 -218 -67 -74 -42 -153 -101 -238 -175 -42 -37 -79 -68 -83
-68 -5 0 -8 64 -8 143 -1 78 -3 185 -5 237 -15 299 -26 492 -31 547 l-6 62 44
44 c66 67 150 166 193 227 21 30 43 62 50 70 36 42 167 308 193 390 29 91 62
233 62 263 0 14 5 38 11 54 17 46 13 378 -7 464 -43 190 -123 388 -192 476
-43 54 -129 103 -206 117 -111 21 -276 5 -516 -50 -143 -33 -143 -33 -136 14
3 20 10 78 16 127 6 50 17 126 25 170 16 89 31 207 69 565 8 80 25 224 36 320
11 96 25 218 30 270 5 52 14 136 19 185 25 233 32 315 46 515 8 118 17 276 21
352 l6 136 -99 99 c-70 71 -127 116 -198 160 -98 60 -285 155 -395 201 -30 13
-63 28 -72 33 -33 17 -344 123 -478 163 -47 13 -132 34 -190 46 -58 11 -125
25 -150 30 -87 19 -410 45 -423 35z m-487 -135 c0 -11 -52 -88 -102 -152 -16
-20 -53 -79 -82 -130 -29 -51 -77 -136 -108 -188 -94 -164 -125 -231 -168
-370 -23 -74 -64 -198 -91 -275 -52 -150 -87 -272 -114 -400 -9 -44 -21 -93
-27 -110 -5 -16 -12 -102 -15 -190 -6 -180 3 -233 57 -347 47 -99 111 -148
190 -148 34 0 114 34 158 67 26 19 36 23 45 14 14 -14 16 -470 3 -653 l-8
-118 -36 -10 c-21 -6 -100 -29 -177 -51 -197 -58 -181 -62 -175 46 10 177 4
286 -19 347 -27 69 -40 81 -92 81 -53 0 -111 -41 -158 -110 -19 -29 -38 -50
-43 -47 -9 6 -73 141 -83 176 -4 13 -15 46 -25 73 -67 177 -146 516 -161 690
-6 72 -13 133 -15 137 -11 18 -16 859 -5 938 6 47 13 119 16 160 4 41 8 83 11
92 10 36 175 129 387 219 78 33 167 71 197 84 257 111 640 216 640 175z m875
-2963 c11 -3 56 -8 100 -12 478 -41 1222 -261 1170 -345 -9 -14 -89 -34 -520
-134 -863 -198 -1405 -215 -2205 -66 -206 39 -403 80 -482 101 -31 8 -38 14
-38 35 0 22 11 31 88 66 205 95 402 162 672 227 220 54 236 57 375 82 66 11
165 29 220 40 86 16 134 18 350 14 138 -2 259 -6 270 -8z m1021 -866 c22 -10
58 -36 80 -57 37 -37 154 -202 154 -219 0 -4 11 -30 26 -58 35 -71 114 -288
158 -437 22 -72 35 -100 47 -100 8 0 10 20 5 70 -10 99 -4 95 77 -45 87 -151
163 -315 186 -400 44 -166 65 -502 57 -906 -8 -421 0 -469 78 -424 17 10 67
47 111 82 44 35 107 85 140 111 33 26 66 52 73 59 7 7 42 29 78 49 61 34 70
36 127 32 79 -7 169 -43 299 -121 97 -58 227 -155 256 -190 11 -13 9 -18 -10
-31 -12 -9 -26 -16 -30 -16 -21 0 -318 -154 -318 -165 0 -7 96 -60 213 -118
298 -147 439 -253 499 -374 31 -63 31 -64 25 -181 -6 -119 -21 -183 -88 -387
-16 -49 -34 -106 -40 -125 -13 -42 -38 -84 -46 -76 -3 3 -9 22 -13 43 -5 21
-26 106 -48 188 -76 283 -120 380 -222 485 -87 90 -213 176 -209 143 0 -5 40
-44 88 -88 160 -147 213 -250 297 -587 48 -190 65 -298 47 -298 -14 0 -96 46
-153 85 -25 17 -65 43 -90 57 -25 14 -81 52 -125 84 -91 65 -190 124 -210 124
-8 0 -16 -8 -18 -17 -11 -37 -27 -122 -43 -218 -36 -222 -62 -325 -83 -325 -4
0 -32 30 -62 68 -30 37 -59 72 -65 77 -6 6 -37 39 -69 75 -31 36 -96 104 -143
152 l-85 87 42 98 c48 115 59 192 42 301 -6 41 -23 96 -36 123 -34 67 -67 82
-164 77 -68 -3 -86 -9 -176 -54 -55 -29 -138 -77 -185 -108 -46 -31 -88 -56
-92 -56 -15 0 5 58 62 185 5 11 17 49 28 85 11 36 29 97 40 135 30 101 59 241
79 390 22 167 25 710 5 850 -42 280 -69 394 -137 583 -32 89 -135 284 -191
364 -33 45 -93 115 -134 156 -118 116 -190 159 -309 186 -63 14 -86 15 -150 5
-90 -13 -174 -43 -216 -75 -221 -169 -380 -467 -459 -859 -34 -172 -48 -290
-61 -530 -18 -360 -11 -715 21 -1026 l6 -66 -188 0 -189 0 -1 331 c-1 182 -7
387 -13 456 -7 69 -16 177 -21 240 -17 225 -44 380 -106 620 -72 281 -168 481
-317 664 -144 178 -245 235 -427 243 -88 4 -114 1 -162 -16 -195 -68 -399
-315 -516 -626 -83 -220 -115 -384 -137 -710 -7 -101 10 -520 25 -635 26 -183
33 -223 66 -355 36 -144 129 -409 169 -480 12 -22 25 -52 29 -67 3 -16 11 -28
16 -28 6 0 10 -6 10 -13 0 -7 25 -51 55 -97 31 -46 52 -87 47 -92 -13 -13
-131 7 -182 32 -25 12 -67 34 -95 50 -27 16 -57 33 -65 37 -8 3 -28 17 -45 29
-64 47 -232 147 -280 166 -54 21 -151 26 -184 9 -78 -42 -115 -242 -75 -403
18 -74 60 -182 86 -220 25 -37 23 -54 -15 -97 -17 -21 -72 -84 -121 -140 -54
-62 -94 -101 -104 -99 -37 7 -113 290 -113 425 -1 87 -21 98 -59 32 -31 -54
-89 -136 -151 -213 -101 -126 -190 -239 -239 -305 -24 -34 -49 -60 -55 -58 -5
2 -21 22 -33 45 -56 100 -61 549 -8 726 36 121 73 203 140 316 31 52 56 98 56
103 0 14 -69 -65 -112 -128 -54 -80 -93 -159 -121 -247 -42 -126 -48 -168 -54
-345 -3 -95 -8 -173 -10 -173 -23 0 -67 120 -148 405 -33 113 -38 148 -43 266
-6 190 11 244 124 386 43 54 148 155 168 162 6 2 18 9 26 17 8 7 61 36 118 64
56 28 102 56 102 62 0 22 -280 -6 -465 -47 -38 -8 -76 -15 -83 -15 -25 0 9 43
114 146 168 166 316 272 502 358 95 44 184 57 248 36 65 -21 213 -108 302
-177 48 -37 90 -62 98 -59 18 7 17 -4 16 491 -1 458 10 702 35 785 26 88 79
185 164 303 87 118 135 174 143 166 3 -3 -1 -37 -9 -75 -17 -80 -19 -124 -5
-124 5 0 14 18 20 39 15 55 117 336 142 391 117 257 207 387 317 463 82 56
224 73 336 39 63 -20 146 -61 180 -91 11 -10 43 -33 70 -51 28 -19 112 -94
187 -169 76 -74 141 -132 144 -128 7 7 -30 68 -88 148 -21 28 -38 54 -38 58 0
13 202 21 549 21 371 0 471 -6 471 -26 0 -7 -6 -17 -13 -21 -17 -10 -92 -112
-100 -135 -16 -44 21 -18 135 96 67 68 159 150 204 183 112 82 295 175 389
196 55 13 182 6 221 -12z m-2204 -677 c96 -25 156 -60 229 -133 144 -147 268
-384 349 -671 23 -80 45 -154 50 -165 27 -63 62 -294 85 -565 31 -362 35 -894
8 -921 -5 -5 -65 -14 -134 -19 -166 -12 -356 -53 -442 -96 -85 -43 -96 -53
-161 -139 -61 -80 -95 -155 -103 -226 -3 -27 -9 -51 -13 -54 -10 -6 -210 -35
-246 -35 -50 0 -89 62 -214 335 -10 22 -31 72 -45 110 -104 273 -140 414 -175
687 -28 219 -34 372 -20 523 6 72 15 173 20 225 7 91 11 119 46 290 93 461
343 815 606 859 78 13 90 13 160 -5z m1975 5 c215 -31 420 -234 561 -555 67
-152 106 -283 158 -532 8 -40 34 -233 45 -337 20 -190 -5 -619 -46 -805 -8
-36 -22 -99 -31 -140 -9 -41 -20 -84 -25 -95 -5 -11 -29 -81 -53 -155 -87
-264 -108 -298 -196 -323 -68 -19 -225 -28 -240 -13 -5 5 -10 25 -10 43 0 34
-33 131 -59 173 -8 14 -37 51 -63 82 -50 58 -142 112 -233 136 -92 24 -393 62
-494 62 -57 0 -61 2 -61 23 0 12 -5 63 -11 112 -26 225 -33 753 -14 1000 18
218 19 230 46 345 90 393 132 514 236 685 93 152 204 250 327 285 77 22 71 22
163 9z m-797 -2559 c4 -14 10 -49 14 -79 8 -62 18 -61 -109 -12 -44 17 -88 31
-98 31 -9 0 -48 -14 -85 -31 -37 -17 -82 -38 -101 -46 l-33 -14 7 83 c4 46 9
86 12 91 2 4 90 6 196 5 l191 -3 6 -25z m196 20 c24 0 44 -4 44 -9 0 -5 -20
-21 -44 -35 -25 -14 -54 -40 -66 -57 -12 -16 -27 -28 -34 -26 -16 5 -27 108
-13 125 7 9 22 12 40 8 16 -3 49 -6 73 -6z m-661 -42 c-4 -24 -9 -45 -10 -47
-2 -1 -19 9 -38 23 -19 14 -39 26 -44 26 -6 0 -16 6 -22 14 -16 19 -1 24 67
25 l54 1 -7 -42z m-190 -9 c86 -45 112 -65 140 -113 38 -64 34 -77 -30 -104
-31 -12 -88 -32 -128 -43 -40 -12 -92 -27 -117 -35 -187 -56 -373 -104 -407
-104 -19 0 -23 6 -23 30 0 41 35 142 65 190 65 103 116 137 265 178 142 39
162 39 235 1z m1263 5 c81 -20 139 -60 193 -132 60 -78 114 -252 79 -252 -35
0 -357 83 -480 124 -228 76 -250 86 -250 106 0 5 18 31 41 60 38 48 75 71 179
114 24 10 166 -2 238 -20z m-696 -118 c51 -24 101 -46 112 -50 15 -5 17 -12
11 -39 -17 -81 -17 -205 0 -263 75 -258 283 -374 568 -320 100 20 150 45 260
136 25 20 87 132 87 156 0 39 17 48 97 55 131 12 236 36 295 68 51 27 152 92
328 211 126 86 230 111 283 70 21 -17 28 -36 42 -116 19 -101 17 -177 -6 -254
-17 -58 -93 -134 -218 -218 l-94 -64 -39 18 c-46 21 -68 48 -68 84 0 32 77
142 165 234 36 38 63 71 60 74 -2 3 -30 -10 -61 -29 -83 -50 -181 -150 -211
-215 l-25 -55 19 -51 c30 -86 164 -188 286 -218 26 -7 47 -18 47 -25 0 -15
-138 -159 -193 -201 -113 -87 -124 -89 -234 -50 -90 33 -217 67 -388 106 -77
17 -178 40 -225 51 -162 37 -415 67 -635 75 -222 9 -700 -24 -825 -56 -19 -5
-87 -16 -150 -25 -63 -9 -142 -25 -175 -35 -33 -10 -85 -21 -115 -24 -157 -20
-540 -133 -755 -223 -44 -18 -89 -33 -102 -33 -50 0 -200 112 -266 198 -63 83
-63 88 -17 117 22 14 42 25 45 25 17 0 148 96 177 129 78 90 82 105 47 174
-35 67 -60 96 -129 147 -95 70 -167 110 -198 110 l-27 -1 35 -30 c19 -16 53
-42 74 -56 46 -30 149 -134 177 -178 22 -35 24 -74 5 -100 -12 -17 -20 -18
-108 -7 -52 6 -139 23 -194 37 -79 20 -104 31 -126 54 -43 48 -87 217 -88 340
0 85 8 127 38 191 33 69 92 53 318 -86 347 -216 379 -224 812 -211 l74 2 18
-47 c10 -26 38 -76 63 -110 37 -51 59 -70 117 -101 122 -64 302 -86 420 -51
109 32 213 122 266 229 46 96 64 286 32 348 -14 26 2 41 106 97 50 27 92 50
93 50 1 0 44 -20 95 -44z m330 -112 c155 -60 433 -141 573 -168 54 -10 60 -14
63 -38 8 -72 -102 -210 -193 -242 -68 -24 -178 -46 -229 -46 -150 0 -282 96
-332 241 -31 90 -21 289 15 289 5 0 51 -16 103 -36z m-702 -13 c14 -26 12
-175 -3 -231 -17 -66 -72 -150 -122 -188 -57 -44 -141 -72 -212 -72 -211 1
-349 76 -404 220 -24 63 -18 74 54 90 41 10 320 89 534 151 18 6 52 19 75 29
54 25 65 25 78 1z m1020 -826 c257 -27 555 -81 583 -106 25 -21 -78 -108 -158
-133 -45 -13 -386 -36 -775 -52 -204 -9 -1342 -4 -1434 6 -80 8 -110 16 -159
43 -33 17 -61 36 -61 42 -2 16 187 61 519 124 444 85 630 102 1050 96 160 -3
355 -11 435 -20z"/>
<path d="M3670 4393 c-80 -29 -162 -233 -182 -453 -19 -218 2 -450 62 -686 51
-197 86 -279 151 -349 96 -104 219 -93 279 26 74 145 109 552 69 814 -18 116
-60 295 -72 302 -6 3 -52 -37 -104 -91 -51 -54 -97 -96 -102 -94 -5 2 20 91
55 198 35 107 64 201 64 208 0 28 -54 92 -94 112 -40 19 -94 25 -126 13z"/>
<path d="M4914 4421 c-85 -52 -147 -199 -189 -446 -14 -81 -16 -136 -12 -290
7 -219 17 -294 58 -460 52 -210 129 -328 231 -356 35 -9 46 -7 93 16 39 19 60
37 78 68 37 64 74 190 94 317 37 235 16 727 -33 779 -15 16 -15 16 -99 -60
-102 -93 -170 -147 -173 -136 -1 7 40 112 93 235 52 122 95 225 95 228 0 3
-13 25 -30 48 -48 71 -142 96 -206 57z"/>
</g>
</svg>
